HIERARCHY
ROOT newVegas:Hips
{
	OFFSET 0.000000 96.479958 0.000000
	CHANNELS 6 Xposition Yposition Zposition Xrotation Yrotation Zrotation
	JOINT newVegas:Pelvis
	{
		OFFSET 0.000000 0.000000 0.000000
		CHANNELS 3 Xrotation Yrotation Zrotation
		JOINT newVegas:LeftUpLeg
		{
			OFFSET 18.735201 -5.666702 -4.541200
			CHANNELS 3 Xrotation Yrotation Zrotation
			JOINT newVegas:LeftLeg
			{
				OFFSET -0.021200 -31.938179 0.493100
				CHANNELS 3 Xrotation Yrotation Zrotation
				JOINT newVegas:LeftFoot
				{
					OFFSET 0.021200 -31.938179 -4.336299
					CHANNELS 3 Xrotation Yrotation Zrotation
					JOINT newVegas:LeftToeBase
					{
						OFFSET 0.943001 -26.722000 15.023500
						CHANNELS 3 Xrotation Yrotation Zrotation
						End Site
						{
							OFFSET 0.000000 30.670183 0.000000
						}
					}
				}
				JOINT newVegas:Left_PantLeg
				{
					OFFSET 0.663870 -9.044666 -1.108900
					CHANNELS 3 Xrotation Yrotation Zrotation
					End Site
					{
						OFFSET 1.415995 20.635357 0.000000
					}
				}
			}
		}
		JOINT newVegas:RightUpLeg
		{
			OFFSET -18.735201 -5.666702 -4.541200
			CHANNELS 3 Xrotation Yrotation Zrotation
			JOINT newVegas:RightLeg
			{
				OFFSET 0.018946 -31.938133 0.493100
				CHANNELS 3 Xrotation Yrotation Zrotation
				JOINT newVegas:RightFoot
				{
					OFFSET -0.018946 -31.938126 -4.336299
					CHANNELS 3 Xrotation Yrotation Zrotation
					JOINT newVegas:RightToeBase
					{
						OFFSET -0.943001 -26.722004 15.023500
						CHANNELS 3 Xrotation Yrotation Zrotation
						End Site
						{
							OFFSET 0.000000 30.670187 0.000000
						}
					}
				}
				JOINT newVegas:Right_PantLeg
				{
					OFFSET -0.661674 -9.044716 -1.108900
					CHANNELS 3 Xrotation Yrotation Zrotation
					End Site
					{
						OFFSET -1.415958 20.635269 0.000000
					}
				}
			}
		}
	}
	JOINT newVegas:Spine
	{
		OFFSET 0.000000 10.199997 -0.299500
		CHANNELS 3 Xrotation Yrotation Zrotation
		JOINT newVegas:Spine1
		{
			OFFSET 0.000000 11.900002 -1.516600
			CHANNELS 3 Xrotation Yrotation Zrotation
			JOINT newVegas:Spine2
			{
				OFFSET 0.000000 13.600006 -2.842500
				CHANNELS 3 Xrotation Yrotation Zrotation
				JOINT newVegas:Neck
				{
					OFFSET 0.000000 9.624100 -2.890100
					CHANNELS 3 Xrotation Yrotation Zrotation
					JOINT newVegas:Head
					{
						OFFSET 0.000000 14.068802 -1.351900
						CHANNELS 3 Xrotation Yrotation Zrotation
						JOINT newVegas:Hair_Back
						{
							OFFSET 0.000000 3.231903 -17.524799
							CHANNELS 3 Xrotation Yrotation Zrotation
							End Site
							{
								OFFSET 0.000000 19.849884 0.000000
							}
						}
						JOINT newVegas:Hair_Front
						{
							OFFSET 0.000000 31.260406 4.573800
							CHANNELS 3 Xrotation Yrotation Zrotation
							JOINT newVegas:Hair_Front1
							{
								OFFSET 0.000000 2.284103 11.993300
								CHANNELS 3 Xrotation Yrotation Zrotation
								JOINT newVegas:Hair_Front2
								{
									OFFSET 0.000000 2.284103 11.993300
									CHANNELS 3 Xrotation Yrotation Zrotation
									End Site
									{
										OFFSET 0.000000 12.208862 0.000000
									}
								}
							}
						}
						JOINT newVegas:Jowel
						{
							OFFSET 0.000000 -7.458206 6.864100
							CHANNELS 3 Xrotation Yrotation Zrotation
							End Site
							{
								OFFSET 0.000000 19.849884 0.000000
							}
						}
					}
				}
				JOINT newVegas:LeftShoulder
				{
					OFFSET 15.263000 10.923401 -0.547700
					CHANNELS 3 Xrotation Yrotation Zrotation
					JOINT newVegas:LeftArm
					{
						OFFSET 25.438599 -2.830597 -13.032500
						CHANNELS 3 Xrotation Yrotation Zrotation
						JOINT newVegas:LeftForeArm
						{
							OFFSET 29.960503 0.000000 0.000000
							CHANNELS 3 Xrotation Yrotation Zrotation
							JOINT newVegas:LeftHand
							{
								OFFSET 27.849251 0.000000 0.000000
								CHANNELS 3 Xrotation Yrotation Zrotation
								JOINT newVegas:LeftHandThumb1
								{
									OFFSET 4.487587 -3.305161 6.305391
									CHANNELS 3 Xrotation Yrotation Zrotation
									JOINT newVegas:LeftHandThumb2
									{
										OFFSET 5.480453 -3.164139 3.164143
										CHANNELS 3 Xrotation Yrotation Zrotation
										JOINT newVegas:LeftHandThumb3
										{
											OFFSET 5.159721 -2.978973 2.978967
											CHANNELS 3 Xrotation Yrotation Zrotation
											End Site
											{
												OFFSET 2.494507 5.926697 1.738678
											}
										}
									}
								}
								JOINT newVegas:LeftHandIndex1
								{
									OFFSET 18.578728 -0.527832 5.208049
									CHANNELS 3 Xrotation Yrotation Zrotation
									JOINT newVegas:LeftHandIndex2
									{
										OFFSET 3.192009 0.000000 0.000000
										CHANNELS 3 Xrotation Yrotation Zrotation
										JOINT newVegas:LeftHandIndex3
										{
											OFFSET 3.835129 0.000000 0.000000
											CHANNELS 3 Xrotation Yrotation Zrotation
											End Site
											{
												OFFSET -0.034599 3.816971 0.371180
											}
										}
									}
								}
								JOINT newVegas:LeftHandMiddle1
								{
									OFFSET 18.476105 0.000000 0.000000
									CHANNELS 3 Xrotation Yrotation Zrotation
									JOINT newVegas:LeftHandMiddle2
									{
										OFFSET 3.324875 0.000000 0.000000
										CHANNELS 3 Xrotation Yrotation Zrotation
										JOINT newVegas:LeftHandMiddle3
										{
											OFFSET 4.596550 0.000000 0.000000
											CHANNELS 3 Xrotation Yrotation Zrotation
											End Site
											{
												OFFSET 0.057701 4.578827 0.399218
											}
										}
									}
								}
								JOINT newVegas:LeftHandRing1
								{
									OFFSET 17.732719 0.121887 -4.201567
									CHANNELS 3 Xrotation Yrotation Zrotation
									JOINT newVegas:LeftHandRing2
									{
										OFFSET 2.733170 0.000000 0.000000
										CHANNELS 3 Xrotation Yrotation Zrotation
										JOINT newVegas:LeftHandRing3
										{
											OFFSET 3.178268 0.000000 0.000000
											CHANNELS 3 Xrotation Yrotation Zrotation
											End Site
											{
												OFFSET 0.119102 3.170624 0.185394
											}
										}
									}
								}
								JOINT newVegas:LeftHandPinky1
								{
									OFFSET 15.989624 -0.606689 -7.535461
									CHANNELS 3 Xrotation Yrotation Zrotation
									JOINT newVegas:LeftHandPinky2
									{
										OFFSET 2.538986 0.000000 0.000000
										CHANNELS 3 Xrotation Yrotation Zrotation
										JOINT newVegas:LeftHandPinky3
										{
											OFFSET 2.593102 0.000000 0.000000
											CHANNELS 3 Xrotation Yrotation Zrotation
											End Site
											{
												OFFSET -0.150902 2.584198 0.152708
											}
										}
									}
								}
							}
							JOINT newVegas:Left_Sleeve
							{
								OFFSET 0.267448 -0.649796 0.577675
								CHANNELS 3 Xrotation Yrotation Zrotation
								End Site
								{
									OFFSET 0.000000 15.991241 0.000000
								}
							}
							JOINT newVegas:Left_CapeC
							{
								OFFSET 15.715958 -8.608795 -6.935905
								CHANNELS 3 Xrotation Yrotation Zrotation
								JOINT newVegas:Left_CapeC1
								{
									OFFSET 0.000000 -8.688499 0.000000
									CHANNELS 3 Xrotation Yrotation Zrotation
									End Site
									{
										OFFSET 0.000000 8.688499 0.000000
									}
								}
							}
						}
						JOINT newVegas:Left_CapeB
						{
							OFFSET 26.118385 -8.608795 -7.079235
							CHANNELS 3 Xrotation Yrotation Zrotation
							JOINT newVegas:Left_CapeB1
							{
								OFFSET 0.000000 -8.688499 0.000000
								CHANNELS 3 Xrotation Yrotation Zrotation
								End Site
								{
									OFFSET 0.000000 8.688499 0.000000
								}
							}
						}
						JOINT newVegas:Left_CapeA
						{
							OFFSET 5.115639 -8.608795 -10.395809
							CHANNELS 3 Xrotation Yrotation Zrotation
							JOINT newVegas:Left_CapeA1
							{
								OFFSET 0.000000 -8.688499 0.000000
								CHANNELS 3 Xrotation Yrotation Zrotation
								End Site
								{
									OFFSET 0.000000 8.688499 0.000000
								}
							}
						}
					}
				}
				JOINT newVegas:RightShoulder
				{
					OFFSET -15.263000 10.923401 -0.547700
					CHANNELS 3 Xrotation Yrotation Zrotation
					JOINT newVegas:RightArm
					{
						OFFSET -25.438599 -2.830597 -13.032500
						CHANNELS 3 Xrotation Yrotation Zrotation
						JOINT newVegas:RightForeArm
						{
							OFFSET -29.960503 0.000000 0.000000
							CHANNELS 3 Xrotation Yrotation Zrotation
							JOINT newVegas:RightHand
							{
								OFFSET -27.849251 0.000000 0.000000
								CHANNELS 3 Xrotation Yrotation Zrotation
								JOINT newVegas:RightHandThumb1
								{
									OFFSET -4.487587 -3.305161 6.305391
									CHANNELS 3 Xrotation Yrotation Zrotation
									JOINT newVegas:RightHandThumb2
									{
										OFFSET -5.480453 -3.164139 3.164143
										CHANNELS 3 Xrotation Yrotation Zrotation
										JOINT newVegas:RightHandThumb3
										{
											OFFSET -5.159721 -2.978973 2.978967
											CHANNELS 3 Xrotation Yrotation Zrotation
											End Site
											{
												OFFSET -2.494507 5.926697 1.738678
											}
										}
									}
								}
								JOINT newVegas:RightHandIndex1
								{
									OFFSET -18.578728 -0.527832 5.208049
									CHANNELS 3 Xrotation Yrotation Zrotation
									JOINT newVegas:RightHandIndex2
									{
										OFFSET -3.192009 0.000000 0.000000
										CHANNELS 3 Xrotation Yrotation Zrotation
										JOINT newVegas:RightHandIndex3
										{
											OFFSET -3.835129 0.000000 0.000000
											CHANNELS 3 Xrotation Yrotation Zrotation
											End Site
											{
												OFFSET 0.034599 3.816971 0.371180
											}
										}
									}
								}
								JOINT newVegas:RightHandMiddle1
								{
									OFFSET -18.476105 0.000000 0.000000
									CHANNELS 3 Xrotation Yrotation Zrotation
									JOINT newVegas:RightHandMiddle2
									{
										OFFSET -3.324875 0.000000 0.000000
										CHANNELS 3 Xrotation Yrotation Zrotation
										JOINT newVegas:RightHandMiddle3
										{
											OFFSET -4.596550 0.000000 0.000000
											CHANNELS 3 Xrotation Yrotation Zrotation
											End Site
											{
												OFFSET -0.057701 4.578827 0.399218
											}
										}
									}
								}
								JOINT newVegas:RightHandRing1
								{
									OFFSET -17.732719 0.121887 -4.201567
									CHANNELS 3 Xrotation Yrotation Zrotation
									JOINT newVegas:RightHandRing2
									{
										OFFSET -2.733170 0.000000 0.000000
										CHANNELS 3 Xrotation Yrotation Zrotation
										JOINT newVegas:RightHandRing3
										{
											OFFSET -3.178268 0.000000 0.000000
											CHANNELS 3 Xrotation Yrotation Zrotation
											End Site
											{
												OFFSET -0.119102 3.170624 0.185394
											}
										}
									}
								}
								JOINT newVegas:RightHandPinky1
								{
									OFFSET -15.989624 -0.606689 -7.535461
									CHANNELS 3 Xrotation Yrotation Zrotation
									JOINT newVegas:RightHandPinky2
									{
										OFFSET -2.538986 0.000000 0.000000
										CHANNELS 3 Xrotation Yrotation Zrotation
										JOINT newVegas:RightHandPinky3
										{
											OFFSET -2.593102 0.000000 0.000000
											CHANNELS 3 Xrotation Yrotation Zrotation
											End Site
											{
												OFFSET 0.150902 2.584198 0.152708
											}
										}
									}
								}
							}
							JOINT newVegas:Right_CapeC
							{
								OFFSET -15.715958 -8.608795 -6.935905
								CHANNELS 3 Xrotation Yrotation Zrotation
								JOINT newVegas:Right_CapeC1
								{
									OFFSET 0.000000 -8.688499 0.000000
									CHANNELS 3 Xrotation Yrotation Zrotation
									End Site
									{
										OFFSET 0.000000 8.688499 0.000000
									}
								}
							}
							JOINT newVegas:Right_Sleeve
							{
								OFFSET -0.267448 -0.649994 0.577675
								CHANNELS 3 Xrotation Yrotation Zrotation
								End Site
								{
									OFFSET 0.000000 15.991302 0.000000
								}
							}
						}
						JOINT newVegas:Right_CapeA
						{
							OFFSET -5.115540 -8.608795 -10.395824
							CHANNELS 3 Xrotation Yrotation Zrotation
							JOINT newVegas:Right_CapeA1
							{
								OFFSET 0.000000 -8.688499 0.000000
								CHANNELS 3 Xrotation Yrotation Zrotation
								End Site
								{
									OFFSET 0.000000 8.688499 0.000000
								}
							}
						}
						JOINT newVegas:Right_CapeB
						{
							OFFSET -26.118187 -8.608795 -7.079266
							CHANNELS 3 Xrotation Yrotation Zrotation
							JOINT newVegas:Right_CapeB1
							{
								OFFSET 0.000000 -8.688499 0.000000
								CHANNELS 3 Xrotation Yrotation Zrotation
								End Site
								{
									OFFSET 0.000000 8.688499 0.000000
								}
							}
						}
					}
				}
				JOINT newVegas:Left_Collar
				{
					OFFSET 18.625099 8.655502 8.828100
					CHANNELS 3 Xrotation Yrotation Zrotation
					JOINT newVegas:Left_Collar1
					{
						OFFSET 14.783401 10.540405 -1.259500
						CHANNELS 3 Xrotation Yrotation Zrotation
						End Site
						{
							OFFSET 0.000000 18.199875 0.000000
						}
					}
				}
				JOINT newVegas:Collar_Back
				{
					OFFSET 0.000000 15.630707 -20.132601
					CHANNELS 3 Xrotation Yrotation Zrotation
					End Site
					{
						OFFSET 0.000000 22.523010 0.000000
					}
				}
				JOINT newVegas:Left_Peck
				{
					OFFSET 17.239599 -5.132599 25.482599
					CHANNELS 3 Xrotation Yrotation Zrotation
					End Site
					{
						OFFSET 0.000000 22.523010 0.000000
					}
				}
				JOINT newVegas:Right_Peck
				{
					OFFSET -17.239599 -5.132202 25.482599
					CHANNELS 3 Xrotation Yrotation Zrotation
					End Site
					{
						OFFSET 0.000000 22.523010 0.000000
					}
				}
				JOINT newVegas:Right_Collar
				{
					OFFSET -18.625099 8.655792 8.828100
					CHANNELS 3 Xrotation Yrotation Zrotation
					JOINT newVegas:Right_Collar1
					{
						OFFSET -14.783401 10.539993 -1.259500
						CHANNELS 3 Xrotation Yrotation Zrotation
						End Site
						{
							OFFSET 0.000000 18.199631 0.000000
						}
					}
				}
			}
		}
		JOINT newVegas:Belly
		{
			OFFSET 0.000000 -6.540398 9.014299
			CHANNELS 3 Xrotation Yrotation Zrotation
			End Site
			{
				OFFSET 0.000000 11.566666 0.000000
			}
		}
	}
	JOINT newVegas:ElvisFacialAnim_Joint
	{
		OFFSET 1.000000 -95.330101 -8.825800
		CHANNELS 3 Xrotation Yrotation Zrotation
		End Site
		{
			OFFSET 0.000000 35.315800 0.000000
		}
	}
}
MOTION
Frames: 4
Frame Time: 0.033333
-1.731011 88.872482 3.922180 -19.684697 -6.649284 -1.990172 0.000000 -0.000000 0.000000 -5.286094 15.456657 24.905481 41.685830 3.635418 2.975085 -14.202813 4.227520 -20.556166 -0.000000 0.000002 -0.000000 -0.000001 -0.000003 -0.000000 -12.591115 -10.227057 -14.100201 48.833281 -2.371370 -10.956639 -16.501850 -3.064037 14.248705 -0.000000 -0.000003 -0.000000 0.000004 0.000001 0.000000 19.299172 0.329551 2.711573 7.665245 0.064562 0.501604 7.665405 0.053444 0.502490 2.432739 0.786479 -0.854455 2.432744 0.786480 -0.854454 -0.000001 0.000000 -0.000000 2.432822 0.786474 -0.854455 2.432730 0.786483 -0.854455 0.000000 0.000000 -0.000000 -0.000001 0.000000 -0.000000 5.762707 -20.131370 -6.782673 -28.972201 18.463779 -41.463200 -0.000397 -95.844725 -0.000433 -45.277225 -16.669553 -1.493604 -1.522448 0.020499 5.599476 4.941000 20.515117 1.652278 0.000001 -0.000002 -0.000005 0.046443 0.799941 -6.643993 0.131536 1.342178 -11.195004 0.000001 -0.000001 0.000000 0.046211 0.798041 -6.628010 0.131922 1.344071 -11.211002 -0.000000 0.000002 -0.000001 0.046435 0.799945 -6.643982 0.131557 1.342174 -11.194999 -0.000001 0.000001 0.000001 0.498799 4.829012 -6.155776 0.125555 -2.713284 -11.696042 0.000002 -0.000005 -0.000001 0.000001 0.000000 -0.000000 0.000001 0.000000 -0.000000 0.000000 0.000001 -0.000000 0.000000 0.000000 0.000000 -0.000000 0.000000 -0.000001 0.000000 0.000000 0.000000 0.000000 -0.000000 -0.000000 9.226756 23.939955 -0.061771 -35.728621 -17.550933 44.729451 -0.000367 97.078640 0.000374 -18.856837 -3.579245 -5.418771 -1.832744 -0.778363 -6.152417 5.554555 -18.957224 -0.917876 -0.000000 -0.000001 -0.000002 0.030325 -0.650189 5.343197 0.127743 -1.329303 10.976736 0.000001 -0.000001 -0.000000 0.030324 -0.650185 5.343198 0.127742 -1.329302 10.976739 0.000000 0.000001 -0.000000 0.030317 -0.650178 5.343198 0.127752 -1.329310 10.976728 0.000001 0.000002 -0.000000 0.030327 -0.650184 5.343204 0.127742 -1.329299 10.976736 0.000000 -0.000004 0.000000 0.000001 0.000001 -0.000001 0.000001 0.000001 -0.000001 0.000001 0.000001 -0.000000 -0.000000 0.000000 -0.000001 -0.000000 0.000001 -0.000002 -0.000000 0.000000 -0.000001 -0.000000 0.000001 -0.000001 -0.000002 0.000000 -0.000000 -0.000002 0.000000 -0.000000 -0.000002 0.000000 -0.000000 -0.000002 0.000000 -0.000000 -0.000002 0.000000 -0.000000 -0.000002 0.000000 -0.000000 -0.000002 0.000000 -0.000000 0.000000 -0.000000 -0.000000 0.000000 -0.000000 0.000000 
-1.485129 88.951607 3.747328 -19.001065 -6.440307 -2.192624 -0.000001 0.000000 0.000000 -6.314331 14.908778 25.347561 42.282720 4.294915 2.097093 -14.246685 4.090447 -20.051280 0.000000 0.000000 -0.000000 -0.000000 -0.000000 0.000000 -13.185808 -10.611963 -13.813842 48.131991 -1.936111 -10.966028 -16.053354 -2.849201 13.536244 -0.000000 0.000001 0.000000 0.000001 0.000000 -0.000000 19.333477 -0.173166 2.895437 7.416332 -0.104639 0.567075 7.416197 -0.113930 0.569694 2.476501 0.821171 -0.903236 2.476497 0.821172 -0.903238 0.000001 0.000000 -0.000000 2.476577 0.821171 -0.903239 2.476510 0.821174 -0.903238 -0.000001 -0.000000 -0.000000 0.000001 0.000000 -0.000000 5.665533 -20.142306 -7.424324 -28.735972 18.409597 -40.898411 -0.000332 -95.846050 -0.000312 -46.049217 -16.100064 -1.468429 -1.522508 0.023397 5.601062 4.940767 20.511651 1.651995 -0.000000 -0.000002 -0.000003 0.046416 0.799872 -6.643239 0.131452 1.341653 -11.190492 -0.000000 -0.000001 -0.000001 0.046193 0.797954 -6.627241 0.131824 1.343545 -11.206489 0.000000 0.000001 0.000003 0.046419 0.799867 -6.643226 0.131454 1.341659 -11.190496 -0.000001 -0.000001 -0.000000 0.498731 4.828919 -6.155019 0.125460 -2.713814 -11.691554 0.000000 -0.000005 0.000001 0.000002 0.000000 0.000000 0.000002 0.000000 0.000000 0.000001 0.000000 0.000000 0.000000 -0.000001 0.000002 0.000000 -0.000001 -0.000001 0.000000 -0.000001 0.000002 0.000000 -0.000001 0.000002 8.286327 22.320795 1.809998 -37.080195 -15.055484 45.117494 -0.000613 96.071228 0.000597 -18.734130 -4.055666 -5.577208 -1.832721 -0.780488 -6.152721 5.554246 -18.953087 -0.917594 0.000002 0.000001 0.000001 0.030342 -0.650228 5.343539 0.127542 -1.328216 10.967631 -0.000003 -0.000000 -0.000000 0.030344 -0.650227 5.343537 0.127539 -1.328211 10.967632 -0.000001 -0.000000 0.000001 0.030348 -0.650229 5.343523 0.127538 -1.328215 10.967627 0.000000 0.000002 0.000001 0.030346 -0.650234 5.343526 0.127533 -1.328204 10.967641 -0.000000 0.000003 0.000001 0.000000 0.000002 -0.000001 0.000001 0.000002 -0.000001 0.000000 0.000002 -0.000002 0.000001 -0.000001 -0.000001 0.000001 0.000000 -0.000003 0.000001 -0.000001 -0.000001 0.000001 -0.000000 -0.000001 -0.000001 -0.000000 0.000000 -0.000001 -0.000000 0.000000 -0.000001 -0.000000 0.000000 -0.000001 -0.000000 0.000000 -0.000001 -0.000000 0.000000 -0.000001 -0.000000 0.000000 -0.000001 -0.000000 0.000000 0.000000 0.000000 0.000000 -0.000001 0.000000 0.000000 
-1.217308 88.990181 3.504654 -18.134540 -6.107830 -2.388186 0.000000 0.000000 -0.000000 -7.807201 14.293980 25.968622 43.195455 4.930342 1.009677 -14.291180 3.982560 -19.369551 0.000000 0.000000 0.000000 0.000001 -0.000000 -0.000001 -13.898712 -11.201963 -13.797217 47.235010 -1.406463 -10.921233 -15.316858 -2.755253 13.502855 -0.000000 0.000001 -0.000000 -0.000002 0.000000 0.000002 19.362613 -0.776480 3.037207 7.152405 -0.305633 0.629637 7.152040 -0.312312 0.634914 2.519526 0.859146 -0.919434 2.519534 0.859145 -0.919435 0.000001 -0.000000 -0.000000 2.519531 0.859146 -0.919434 2.519596 0.859147 -0.919437 -0.000001 0.000000 -0.000000 0.000001 -0.000000 -0.000000 5.587476 -20.081777 -7.840386 -28.270339 18.309220 -40.429788 0.000096 -95.943558 0.000075 -46.482781 -15.563894 -1.403970 -1.522691 0.031906 5.605750 4.940111 20.501364 1.651233 0.000002 -0.000001 -0.000004 0.046394 0.799610 -6.641070 0.131129 1.340069 -11.177151 0.000000 -0.000003 -0.000002 0.046180 0.797688 -6.625092 0.131506 1.341958 -11.193164 0.000000 -0.000001 0.000001 0.046401 0.799610 -6.641064 0.131124 1.340080 -11.177173 -0.000000 0.000004 0.000001 0.498563 4.828679 -6.152856 0.125126 -2.715387 -11.678269 0.000001 -0.000005 0.000001 0.000002 -0.000001 0.000001 0.000002 -0.000001 0.000001 0.000001 -0.000001 0.000001 0.000001 -0.000001 0.000007 0.000001 0.000000 0.000003 0.000001 -0.000001 0.000007 0.000001 -0.000000 0.000006 7.428431 20.919205 4.006749 -38.877744 -12.587421 45.406343 -0.001132 94.974231 0.001140 -18.561662 -4.521615 -5.732448 -1.832744 -0.786764 -6.153658 5.553329 -18.940798 -0.916696 -0.000000 -0.000001 -0.000002 0.030347 -0.650346 5.344512 0.126900 -1.324998 10.940814 0.000001 -0.000000 -0.000000 0.030347 -0.650352 5.344513 0.126892 -1.324985 10.940820 0.000001 0.000002 -0.000000 0.030347 -0.650346 5.344519 0.126904 -1.324995 10.940805 0.000000 0.000004 0.000000 0.030342 -0.650344 5.344533 0.126893 -1.324993 10.940798 0.000000 0.000003 -0.000001 0.000000 0.000000 -0.000000 0.000000 0.000000 0.000000 0.000000 0.000000 -0.000000 0.000000 -0.000001 -0.000000 -0.000000 0.000000 0.000000 0.000000 -0.000001 -0.000000 -0.000000 -0.000000 -0.000000 -0.000000 -0.000000 -0.000000 -0.000000 -0.000000 -0.000000 -0.000000 -0.000000 -0.000000 -0.000000 -0.000000 -0.000000 -0.000000 -0.000000 -0.000000 -0.000000 -0.000000 -0.000000 -0.000000 -0.000000 -0.000000 -0.000000 0.000000 -0.000000 0.000000 0.000000 -0.000000 
-0.865232 88.978699 3.202978 -17.133840 -5.648410 -2.564881 0.000001 0.000000 0.000000 -9.899743 13.960759 26.721341 44.492610 5.322682 -0.065221 -14.417071 3.900508 -18.425550 0.000000 0.000000 -0.000000 -0.000001 0.000001 -0.000000 -14.684845 -11.865768 -13.988332 46.204748 -0.999002 -10.804503 -14.440454 -2.745482 13.911201 -0.000000 0.000001 -0.000000 0.000001 0.000003 -0.000001 19.516092 -1.455646 3.107193 6.990528 -0.526184 0.606407 6.988966 -0.534134 0.614988 2.481830 0.897265 -0.889840 2.481834 0.897270 -0.889841 0.000001 -0.000000 -0.000000 2.481903 0.897266 -0.889843 2.481762 0.897276 -0.889842 0.000001 -0.000000 -0.000000 0.000001 -0.000000 -0.000000 5.597759 -19.928737 -7.550110 -27.728027 18.437636 -40.453916 -0.000457 -96.234251 -0.000490 -46.929021 -15.324568 -1.848819 -1.522989 0.045866 5.613382 4.939009 20.484509 1.649980 0.000002 -0.000002 -0.000003 0.046338 0.799182 -6.637463 0.130607 1.337491 -11.155362 -0.000001 -0.000000 0.000002 0.046108 0.797269 -6.621489 0.130994 1.339402 -11.171353 0.000001 0.000002 0.000001 0.046349 0.799179 -6.637472 0.130607 1.337493 -11.155354 0.000001 -0.000000 -0.000002 0.498243 4.828282 -6.149259 0.124583 -2.717965 -11.656464 0.000003 -0.000005 -0.000001 0.000003 -0.000000 -0.000001 0.000003 -0.000000 -0.000001 0.000002 -0.000000 -0.000001 -0.000001 0.000000 0.000002 -0.000001 0.000000 -0.000000 -0.000001 0.000000 0.000002 -0.000001 -0.000000 0.000001 7.245846 20.918197 5.079045 -40.546045 -11.694707 44.979818 -0.000416 94.395461 0.000376 -18.521108 -4.732011 -5.807659 -1.832731 -0.797043 -6.155203 5.551857 -18.920698 -0.915257 -0.000000 -0.000001 0.000001 0.030380 -0.650550 5.346090 0.125893 -1.319751 10.896804 -0.000000 -0.000000 -0.000000 0.030369 -0.650541 5.346103 0.125901 -1.319754 10.896798 -0.000001 -0.000000 0.000000 0.030385 -0.650552 5.346096 0.125886 -1.319751 10.896800 0.000002 0.000001 -0.000000 0.030374 -0.650558 5.346105 0.125896 -1.319738 10.896793 0.000001 -0.000002 0.000001 0.000000 0.000001 -0.000001 0.000000 0.000000 -0.000001 0.000000 0.000000 -0.000001 0.000001 0.000000 0.000002 0.000000 0.000000 0.000004 0.000001 0.000000 0.000002 0.000000 0.000000 0.000004 0.000001 0.000000 0.000000 0.000001 0.000000 0.000000 0.000001 0.000000 0.000000 0.000001 0.000000 0.000000 0.000001 0.000000 0.000000 0.000001 0.000000 0.000000 0.000001 0.000000 0.000000 0.000000 0.000002 0.000000 0.000001 0.000000 0.000000 
